<mxfile host="app.diagrams.net" agent="Mozilla/5.0 (Windows NT 10.0; Win64; x64) AppleWebKit/537.36 (KHTML, like Gecko) Chrome/135.0.0.0 Safari/537.36" version="26.2.12">
  <diagram name="第 1 页" id="2Xvwrbs43sv64f9fI6_w">
    <mxGraphModel dx="462" dy="1457" grid="1" gridSize="10" guides="1" tooltips="1" connect="1" arrows="0" fold="1" page="1" pageScale="1" pageWidth="827" pageHeight="1169" math="0" shadow="0">
      <root>
        <mxCell id="0" />
        <mxCell id="1" parent="0" />
        <mxCell id="E91nDIkUqWd71HTLm78g-30" value="" style="rounded=1;whiteSpace=wrap;html=1;fillColor=#fff2cc;strokeColor=#d6b656;" vertex="1" parent="1">
          <mxGeometry x="305" y="-20" width="150" height="230" as="geometry" />
        </mxCell>
        <mxCell id="E91nDIkUqWd71HTLm78g-2" value="" style="verticalLabelPosition=bottom;html=1;verticalAlign=top;align=center;strokeColor=none;fillColor=#00BEF2;shape=mxgraph.azure.user;" vertex="1" parent="1">
          <mxGeometry x="60" y="60" width="47.5" height="50" as="geometry" />
        </mxCell>
        <mxCell id="E91nDIkUqWd71HTLm78g-3" value="&lt;font face=&quot;Times New Roman&quot;&gt;Human user PHC&lt;/font&gt;" style="text;strokeColor=none;align=center;fillColor=none;html=1;verticalAlign=middle;whiteSpace=wrap;rounded=0;" vertex="1" parent="1">
          <mxGeometry x="60" y="120" width="60" height="30" as="geometry" />
        </mxCell>
        <mxCell id="E91nDIkUqWd71HTLm78g-7" value="" style="endArrow=blockThin;html=1;labelPosition=left;verticalLabelPosition=middle;align=right;verticalAlign=middle;dashed=1;dashPattern=8 4;endFill=0;startArrow=oval;startFill=0;endSize=6;startSize=4;rounded=0;" edge="1" parent="1">
          <mxGeometry relative="1" as="geometry">
            <mxPoint x="107.5" y="84.5" as="sourcePoint" />
            <mxPoint x="200" y="85" as="targetPoint" />
          </mxGeometry>
        </mxCell>
        <mxCell id="E91nDIkUqWd71HTLm78g-10" value="&lt;font face=&quot;Times New Roman&quot;&gt;PHC hash&lt;/font&gt;" style="text;strokeColor=none;align=center;fillColor=none;html=1;verticalAlign=middle;whiteSpace=wrap;rounded=0;" vertex="1" parent="1">
          <mxGeometry x="193.75" y="120" width="60" height="30" as="geometry" />
        </mxCell>
        <mxCell id="E91nDIkUqWd71HTLm78g-13" value="" style="verticalLabelPosition=bottom;html=1;verticalAlign=top;align=center;strokeColor=none;fillColor=#00BEF2;shape=mxgraph.azure.file;pointerEvents=1;" vertex="1" parent="1">
          <mxGeometry x="200" y="60" width="47.5" height="50" as="geometry" />
        </mxCell>
        <mxCell id="E91nDIkUqWd71HTLm78g-17" value="" style="verticalLabelPosition=bottom;html=1;verticalAlign=top;align=center;strokeColor=none;fillColor=#00BEF2;shape=mxgraph.azure.access_control;gradientColor=light-dark(#00bef2, #ededed);" vertex="1" parent="1">
          <mxGeometry x="350" y="55" width="60" height="60" as="geometry" />
        </mxCell>
        <mxCell id="E91nDIkUqWd71HTLm78g-18" value="&lt;font style=&quot;color: rgb(102, 178, 255);&quot; face=&quot;Times New Roman&quot;&gt;Seed&amp;nbsp;&lt;/font&gt;&lt;div&gt;&lt;font style=&quot;color: rgb(102, 178, 255);&quot; face=&quot;Times New Roman&quot;&gt;Public Key&lt;/font&gt;&lt;/div&gt;" style="text;strokeColor=none;align=center;fillColor=none;html=1;verticalAlign=middle;whiteSpace=wrap;rounded=0;" vertex="1" parent="1">
          <mxGeometry x="355" y="115" width="60" height="30" as="geometry" />
        </mxCell>
        <mxCell id="E91nDIkUqWd71HTLm78g-19" value="" style="endArrow=classic;startArrow=classic;html=1;rounded=0;exitX=1;exitY=0.5;exitDx=0;exitDy=0;exitPerimeter=0;entryX=0;entryY=0.517;entryDx=0;entryDy=0;entryPerimeter=0;" edge="1" parent="1" source="E91nDIkUqWd71HTLm78g-13" target="E91nDIkUqWd71HTLm78g-17">
          <mxGeometry width="50" height="50" relative="1" as="geometry">
            <mxPoint x="270" y="140" as="sourcePoint" />
            <mxPoint x="330" y="86" as="targetPoint" />
          </mxGeometry>
        </mxCell>
        <mxCell id="E91nDIkUqWd71HTLm78g-20" value="" style="sketch=0;outlineConnect=0;fontColor=#232F3E;gradientColor=default;fillColor=light-dark(#00bef2, #ff81d9);strokeColor=none;dashed=0;verticalLabelPosition=bottom;verticalAlign=top;align=center;html=1;fontSize=12;fontStyle=0;aspect=fixed;pointerEvents=1;shape=mxgraph.aws4.organizations_account;" vertex="1" parent="1">
          <mxGeometry x="545.62" y="60" width="51.23" height="54" as="geometry" />
        </mxCell>
        <mxCell id="E91nDIkUqWd71HTLm78g-23" value="" style="verticalLabelPosition=bottom;html=1;verticalAlign=top;align=center;strokeColor=none;fillColor=#00BEF2;shape=mxgraph.azure.access_control;gradientColor=light-dark(#fd0de9, #ededed);" vertex="1" parent="1">
          <mxGeometry x="310" y="-5" width="60" height="60" as="geometry" />
        </mxCell>
        <mxCell id="E91nDIkUqWd71HTLm78g-24" value="" style="verticalLabelPosition=bottom;html=1;verticalAlign=top;align=center;strokeColor=none;fillColor=#00BEF2;shape=mxgraph.azure.access_control;gradientColor=light-dark(#f0aa14, #ededed);" vertex="1" parent="1">
          <mxGeometry x="380" y="-5" width="60" height="60" as="geometry" />
        </mxCell>
        <mxCell id="E91nDIkUqWd71HTLm78g-27" value="" style="verticalLabelPosition=bottom;html=1;verticalAlign=top;align=center;strokeColor=none;fillColor=light-dark(#3af514, #0089b6);shape=mxgraph.azure.access_control;gradientColor=light-dark(#00bef2, #ededed);" vertex="1" parent="1">
          <mxGeometry x="390" y="130" width="60" height="60" as="geometry" />
        </mxCell>
        <mxCell id="E91nDIkUqWd71HTLm78g-29" value="" style="verticalLabelPosition=bottom;html=1;verticalAlign=top;align=center;strokeColor=none;fillColor=light-dark(#f00054, #0089b6);shape=mxgraph.azure.access_control;gradientColor=light-dark(#00bef2, #ededed);" vertex="1" parent="1">
          <mxGeometry x="310" y="130" width="60" height="60" as="geometry" />
        </mxCell>
        <mxCell id="E91nDIkUqWd71HTLm78g-34" value="&lt;font style=&quot;color: rgb(255, 204, 153);&quot; face=&quot;Times New Roman&quot;&gt;A Group of&amp;nbsp;&lt;/font&gt;&lt;div&gt;&lt;font style=&quot;color: rgb(255, 204, 153);&quot; face=&quot;Times New Roman&quot;&gt;Seed Public Keys&lt;/font&gt;&lt;/div&gt;" style="text;strokeColor=none;align=center;fillColor=none;html=1;verticalAlign=middle;whiteSpace=wrap;rounded=0;" vertex="1" parent="1">
          <mxGeometry x="325" y="220" width="120" height="30" as="geometry" />
        </mxCell>
        <mxCell id="E91nDIkUqWd71HTLm78g-36" value="" style="endArrow=blockThin;html=1;labelPosition=left;verticalLabelPosition=middle;align=right;verticalAlign=middle;dashed=1;dashPattern=8 4;endFill=0;startArrow=oval;startFill=0;endSize=6;startSize=4;rounded=0;" edge="1" parent="1">
          <mxGeometry relative="1" as="geometry">
            <mxPoint x="455" y="84.25" as="sourcePoint" />
            <mxPoint x="540" y="85.75" as="targetPoint" />
          </mxGeometry>
        </mxCell>
        <mxCell id="E91nDIkUqWd71HTLm78g-37" value="&lt;font face=&quot;Times New Roman&quot;&gt;Soul account&lt;/font&gt;" style="text;strokeColor=none;align=center;fillColor=none;html=1;verticalAlign=middle;whiteSpace=wrap;rounded=0;" vertex="1" parent="1">
          <mxGeometry x="545.62" y="120" width="60" height="30" as="geometry" />
        </mxCell>
      </root>
    </mxGraphModel>
  </diagram>
</mxfile>
